<?xml version="1.0" ?><svg id="OBJECT" viewBox="0 0 512 512" xmlns="http://www.w3.org/2000/svg"><defs><style>.cls-1{fill:#bddbff;}.cls-2{fill:#3d9ae2;}.cls-3{fill:#fff;}</style></defs><title/><rect class="cls-1" height="50" width="497" x="7.5" y="454.5"/><path class="cls-2" d="M504.5,512H7.5A7.5,7.5,0,0,1,0,504.5v-50A7.5,7.5,0,0,1,7.5,447h497a7.5,7.5,0,0,1,7.5,7.5v50A7.5,7.5,0,0,1,504.5,512ZM15,497H497V462H15Z"/><path class="cls-1" d="M57.5,7.5h397a20,20,0,0,1,20,20v427a0,0,0,0,1,0,0H37.5a0,0,0,0,1,0,0V27.5a20,20,0,0,1,20-20Z"/><path class="cls-2" d="M474.5,462H37.5a7.5,7.5,0,0,1-7.5-7.5V27.5A27.54,27.54,0,0,1,57.5,0h397A27.54,27.54,0,0,1,482,27.5v427A7.5,7.5,0,0,1,474.5,462ZM45,447H467V27.5A12.52,12.52,0,0,0,454.5,15H57.5A12.52,12.52,0,0,0,45,27.5Z"/><polygon class="cls-3" points="504.5 141 7.5 141 37.5 81 474.5 81 504.5 141"/><path class="cls-2" d="M504.5,148.5H7.5A7.5,7.5,0,0,1,.79,137.65l30-60A7.49,7.49,0,0,1,37.5,73.5h437a7.49,7.49,0,0,1,6.71,4.15l30,60a7.5,7.5,0,0,1-6.71,10.85Zm-484.87-15H492.37l-22.5-45H42.13Z"/><path class="cls-1" d="M7.5,141H90.33a0,0,0,0,1,0,0v48.58A41.42,41.42,0,0,1,48.92,231h0A41.42,41.42,0,0,1,7.5,189.58V141A0,0,0,0,1,7.5,141Z"/><path class="cls-2" d="M48.92,238.5A49,49,0,0,1,0,189.58V141a7.5,7.5,0,0,1,7.5-7.5H90.33a7.5,7.5,0,0,1,7.5,7.5v48.58A49,49,0,0,1,48.92,238.5ZM15,148.5v41.08a33.92,33.92,0,1,0,67.83,0V148.5Z"/><path class="cls-3" d="M90.33,141h82.83a0,0,0,0,1,0,0v48.58A41.42,41.42,0,0,1,131.75,231h0a41.42,41.42,0,0,1-41.42-41.42V141A0,0,0,0,1,90.33,141Z"/><path class="cls-2" d="M131.75,238.5a49,49,0,0,1-48.92-48.92V141a7.5,7.5,0,0,1,7.5-7.5h82.84a7.5,7.5,0,0,1,7.5,7.5v48.58A49,49,0,0,1,131.75,238.5Zm-33.92-90v41.08a33.92,33.92,0,1,0,67.84,0V148.5Z"/><path class="cls-1" d="M173.17,141H256a0,0,0,0,1,0,0v48.58A41.42,41.42,0,0,1,214.58,231h0a41.42,41.42,0,0,1-41.42-41.42V141A0,0,0,0,1,173.17,141Z"/><path class="cls-2" d="M214.58,238.5a49,49,0,0,1-48.91-48.92V141a7.5,7.5,0,0,1,7.5-7.5H256a7.5,7.5,0,0,1,7.5,7.5v48.58A49,49,0,0,1,214.58,238.5Zm-33.91-90v41.08a33.92,33.92,0,1,0,67.83,0V148.5Z"/><path class="cls-3" d="M256,141h82.83a0,0,0,0,1,0,0v48.58A41.42,41.42,0,0,1,297.42,231h0A41.42,41.42,0,0,1,256,189.58V141a0,0,0,0,1,0,0Z"/><path class="cls-2" d="M297.42,238.5a49,49,0,0,1-48.92-48.92V141a7.5,7.5,0,0,1,7.5-7.5h82.83a7.5,7.5,0,0,1,7.5,7.5v48.58A49,49,0,0,1,297.42,238.5Zm-33.92-90v41.08a33.92,33.92,0,1,0,67.83,0V148.5Z"/><path class="cls-1" d="M338.83,141h82.83a0,0,0,0,1,0,0v48.58A41.42,41.42,0,0,1,380.25,231h0a41.42,41.42,0,0,1-41.42-41.42V141A0,0,0,0,1,338.83,141Z"/><path class="cls-2" d="M380.25,238.5a49,49,0,0,1-48.92-48.92V141a7.5,7.5,0,0,1,7.5-7.5h82.84a7.5,7.5,0,0,1,7.5,7.5v48.58A49,49,0,0,1,380.25,238.5Zm-33.92-90v41.08a33.92,33.92,0,0,0,67.84,0V148.5Z"/><path class="cls-3" d="M421.67,141H504.5a0,0,0,0,1,0,0v48.58A41.42,41.42,0,0,1,463.08,231h0a41.42,41.42,0,0,1-41.42-41.42V141A0,0,0,0,1,421.67,141Z"/><path class="cls-2" d="M463.08,238.5a49,49,0,0,1-48.91-48.92V141a7.5,7.5,0,0,1,7.5-7.5H504.5A7.5,7.5,0,0,1,512,141v48.58A49,49,0,0,1,463.08,238.5Zm-33.91-90v41.08a33.92,33.92,0,1,0,67.83,0V148.5Z"/><rect class="cls-3" height="200" width="130" x="87.5" y="304.5"/><path class="cls-2" d="M217.5,512H87.5a7.5,7.5,0,0,1-7.5-7.5v-200a7.5,7.5,0,0,1,7.5-7.5h130a7.5,7.5,0,0,1,7.5,7.5v200A7.5,7.5,0,0,1,217.5,512ZM95,497H210V312H95Z"/><rect class="cls-3" height="120" width="160" x="274.5" y="264.5"/><path class="cls-2" d="M434.5,392h-160a7.5,7.5,0,0,1-7.5-7.5v-120a7.5,7.5,0,0,1,7.5-7.5h160a7.5,7.5,0,0,1,7.5,7.5v120A7.5,7.5,0,0,1,434.5,392ZM282,377H427V272H282Z"/><path class="cls-2" d="M354.5,392a7.5,7.5,0,0,1-7.5-7.5v-120a7.5,7.5,0,0,1,15,0v120A7.5,7.5,0,0,1,354.5,392Z"/><path class="cls-2" d="M434.5,332H276.33a7.5,7.5,0,1,1,0-15H434.5a7.5,7.5,0,0,1,0,15Z"/><path class="cls-2" d="M192.5,419.5A7.5,7.5,0,0,1,185,412V397a7.5,7.5,0,0,1,15,0v15A7.5,7.5,0,0,1,192.5,419.5Z"/></svg>