<?xml version="1.0" encoding="iso-8859-1"?>
<!-- Generator: Adobe Illustrator 19.0.0, SVG Export Plug-In . SVG Version: 6.00 Build 0)  -->
<svg version="1.1" id="Layer_1" xmlns="http://www.w3.org/2000/svg" xmlns:xlink="http://www.w3.org/1999/xlink" x="0px" y="0px"
	 viewBox="0 0 295.238 295.238" style="enable-background:new 0 0 295.238 295.238;" xml:space="preserve">
<g>
	<g>
		<rect x="19.048" y="52.381" style="fill:#F9BA48;" width="114.286" height="76.19"/>
		<path style="fill:#333333;" d="M280.952,28.571H14.286C6.41,28.571,0,34.981,0,42.857v176.19c0,7.876,6.41,14.286,14.286,14.286
			h80.952v23.81h-23.81v9.524h152.381v-9.524H200v-23.81h80.952c7.876,0,14.286-6.41,14.286-14.286V42.857
			C295.238,34.981,288.828,28.571,280.952,28.571z M14.286,38.095h266.667c2.629,0,4.762,2.138,4.762,4.762v147.619H9.524V42.857
			C9.524,40.233,11.657,38.095,14.286,38.095z M190.476,257.143h-85.714v-23.81h85.714V257.143z M280.952,223.809H14.286
			c-2.629,0-4.762-2.138-4.762-4.762V200h276.19v19.048C285.714,221.671,283.581,223.809,280.952,223.809z"/>
		<path style="fill:#333333;" d="M167.224,142.857h13.729v0.876c-5.529,1.971-9.524,7.21-9.524,13.41
			c0,7.876,6.41,14.286,14.286,14.286c6.2,0,11.438-3.995,13.41-9.524h39.852c1.971,5.529,7.21,9.524,13.41,9.524
			c7.876,0,14.286-6.41,14.286-14.286c0-6.2-3.995-11.438-9.524-13.41v-0.876h13.833l5.714-57.143H176.19v9.524h89.976l-3.81,38.095
			h-86.724l-9.524-76.19h-18.49v9.524H157.7L167.224,142.857z M238.971,152.381h-39.852c-1.438-4.033-4.614-7.21-8.648-8.648v-0.876
			h57.143v0.876C243.586,145.171,240.409,148.348,238.971,152.381z M185.714,161.905c-2.629,0-4.762-2.138-4.762-4.762
			s2.133-4.762,4.762-4.762s4.762,2.138,4.762,4.762S188.343,161.905,185.714,161.905z M252.381,161.905
			c-2.629,0-4.762-2.138-4.762-4.762s2.133-4.762,4.762-4.762s4.762,2.138,4.762,4.762S255.009,161.905,252.381,161.905z"/>
		<rect x="180.952" y="109.524" style="fill:#333333;" width="76.19" height="9.524"/>
		<rect x="19.048" y="142.857" style="fill:#333333;" width="114.286" height="9.524"/>
		<rect x="19.048" y="166.667" style="fill:#333333;" width="114.286" height="9.524"/>
	</g>
</g>
<g>
</g>
<g>
</g>
<g>
</g>
<g>
</g>
<g>
</g>
<g>
</g>
<g>
</g>
<g>
</g>
<g>
</g>
<g>
</g>
<g>
</g>
<g>
</g>
<g>
</g>
<g>
</g>
<g>
</g>
</svg>
